<?xml version="1.0" encoding="utf-8"?>
<!-- Generator: Adobe Illustrator 16.0.0, SVG Export Plug-In . SVG Version: 6.00 Build 0)  -->
<!DOCTYPE svg PUBLIC "-//W3C//DTD SVG 1.1//EN" "http://www.w3.org/Graphics/SVG/1.1/DTD/svg11.dtd">
<svg version="1.1" xmlns="http://www.w3.org/2000/svg" xmlns:xlink="http://www.w3.org/1999/xlink" x="0px" y="0px" width="229px"
	 height="2077.591px" viewBox="0 0 229 2077.591" enable-background="new 0 0 229 2077.591" xml:space="preserve">
<filter  id="AI_GaussianBlur_7">
	<feGaussianBlur  stdDeviation="7"></feGaussianBlur>
</filter>
<g id="Layer_2_1_" display="none">
	<rect x="-0.164" display="inline" fill="#633939" stroke="#000000" stroke-miterlimit="10" width="229.328" height="2077.591"/>
</g>
<g id="Layer_1">
	<g id="Layer_2" display="none">
		
			<image display="inline" overflow="visible" enable-background="new    " width="25" height="84" xlink:href="5CBC7EEE4A7AD249.jpeg"  transform="matrix(1 0 0 1 -1.1875 0.4297)">
		</image>
	</g>
	<g id="Layer_1_1_">
		<g>
			<path fill="#FFFFFF" d="M50.787,1348.837L50.787,1348.837c-4.819,0-7.854,1.662-7.65,2.996c0.057,0.38,0.221,1.418,0.426,2.723
				c-2.363,0.918-3.145,2.404-3.039,3.617c0.123,1.435,1.414,2.971,4.25,3.236c1.619,0.149,3.566-0.736,4.828-2.254
				c-0.121-0.203-0.189-0.44-0.189-0.693c0-0.76,0.615-1.376,1.375-1.376c0.758,0,1.374,0.616,1.374,1.376
				c0,0.748-0.599,1.354-1.344,1.373c-1.503,1.938-3.789,3.104-5.956,2.971c0.051,0.319,0.069,0.439,0.094,0.603
				c0.09,0.566,2.307,2.317,5.832,2.319l0,0c3.525-0.002,5.742-1.753,5.83-2.319c0.088-0.565,1.613-10.221,1.82-11.574
				C58.64,1350.499,55.605,1348.837,50.787,1348.837z M41.892,1358.054c-0.055-0.631,0.446-1.471,1.889-2.101
				c0.207,1.314,0.434,2.747,0.631,4.003C42.837,1359.646,41.958,1358.825,41.892,1358.054z M50.787,1353.87
				c-3.527-0.002-6.027-1.313-6.027-1.801c-0.002-0.486,2.502-1.798,6.027-1.796c3.525-0.002,6.028,1.31,6.026,1.796
				C56.813,1352.558,54.312,1353.868,50.787,1353.87z"/>
			<path fill="#FFFFFF" d="M60.187,1376.114L60.187,1376.114c-2.543,0-4.145,0.876-4.037,1.58c0.03,0.2,0.117,0.749,0.225,1.438
				c-1.247,0.484-1.659,1.27-1.604,1.908c0.064,0.758,0.746,1.567,2.242,1.708c0.854,0.079,1.883-0.388,2.549-1.188
				c-0.064-0.106-0.1-0.231-0.1-0.366c0-0.4,0.324-0.727,0.725-0.727s0.726,0.325,0.726,0.727c0,0.395-0.315,0.716-0.709,0.725
				c-0.794,1.021-2,1.64-3.144,1.568c0.027,0.168,0.037,0.231,0.05,0.316c0.047,0.301,1.217,1.225,3.077,1.227l0,0
				c1.861-0.002,3.031-0.927,3.077-1.227c0.046-0.298,0.851-5.394,0.96-6.107C64.332,1376.991,62.73,1376.114,60.187,1376.114z
				 M55.494,1380.979c-0.029-0.334,0.235-0.775,0.997-1.108c0.109,0.694,0.228,1.45,0.332,2.112
				C55.992,1381.817,55.529,1381.385,55.494,1380.979z M60.187,1378.77c-1.861,0-3.18-0.691-3.18-0.949
				c-0.002-0.256,1.319-0.947,3.18-0.947s3.182,0.691,3.182,0.947C63.369,1378.077,62.048,1378.77,60.187,1378.77z"/>
			<g>
				<path fill="#FFFFFF" d="M53.455,1313.653c-2.281-5.029-3.467-6.939-7.193-6.86c-1.326,0.028-1.008-0.985-2.02-0.601
					c-1.011,0.385-0.143,0.946-1.178,1.815c-2.902,2.442-2.635,4.701-1.289,10.086c0.567,2.269-1.367,2.381-0.602,4.578
					c0.559,1.604,4.679,2.274,9.025,0.621c4.348-1.652,7.091-4.935,6.532-6.537C55.964,1314.558,54.414,1315.771,53.455,1313.653z
					 M49.727,1321.939c-3.882,1.477-7.073,0.607-7.208,0.222c-0.232-0.666,1.254-2.887,5.691-4.574
					c4.439-1.688,6.916-1.062,7.176-0.317C55.539,1317.708,53.61,1320.463,49.727,1321.939z M48.48,1318.357
					c-2.03,0.771-3.44,1.654-4.354,2.449c0.643,0.599,1.846,0.744,3.047,0.287c1.527-0.58,2.465-1.914,2.094-2.978
					c-0.005-0.013-0.011-0.024-0.016-0.037C49,1318.165,48.744,1318.257,48.48,1318.357z"/>
			</g>
			<g>
				<path fill="#FFFFFF" d="M54.833,1385.524c-2.48-0.904-3.273-1.668-3.273-3.302c0-0.979,0.758-0.66,1.09-2.455
					c0.139-0.745,0.807-0.012,0.936-1.713c0-0.678-0.365-0.846-0.365-0.846s0.186-1.003,0.258-1.773
					c0.09-0.963-0.555-3.445-3.998-3.445s-4.09,2.482-4,3.445c0.073,0.771,0.26,1.773,0.26,1.773s-0.366,0.168-0.366,0.846
					c0.128,1.701,0.798,0.968,0.936,1.713c0.333,1.796,1.089,1.476,1.089,2.455c0,1.634-0.791,2.396-3.273,3.302
					c-2.488,0.905-4.105,1.832-4.105,2.462s0,2.118,0,2.118h9.461h9.459c0,0,0-1.488,0-2.118S57.322,1386.431,54.833,1385.524z"/>
			</g>
			<path fill="#FFFFFF" d="M44.433,1329.459h9.815l3.231,7.325v6.235l-16-0.011v-6.224L44.433,1329.459z M43.672,1336.686h3.106
				v2.108h4.893v-2.108h3.686l-2.35-5.23h-7.184L43.672,1336.686z"/>
			<g>
				<path fill="#FFFFFF" d="M50.666,1394.599c-5.959,0.08-10.724,4.977-10.645,10.935c0.08,5.957,4.975,10.725,10.934,10.645
					c5.957-0.08,10.723-4.976,10.645-10.935C61.519,1399.286,56.624,1394.52,50.666,1394.599z M51.862,1398.194
					c1.097,0,1.421,0.637,1.421,1.362c0,0.91-0.729,1.751-1.97,1.751c-1.04,0-1.533-0.521-1.505-1.386
					C49.808,1399.194,50.417,1398.194,51.862,1398.194z M49.05,1412.132c-0.75,0-1.299-0.455-0.775-2.455l0.861-3.549
					c0.148-0.567,0.174-0.795,0-0.795c-0.227,0-1.199,0.393-1.773,0.779l-0.375-0.613c1.824-1.522,3.92-2.417,4.819-2.417
					c0.749,0,0.874,0.888,0.5,2.251l-0.985,3.729c-0.174,0.658-0.1,0.887,0.075,0.887c0.226,0,0.962-0.273,1.687-0.844l0.424,0.569
					C51.734,1411.448,49.798,1412.132,49.05,1412.132z"/>
			</g>
		</g>
		<g>
			<g>
				<g>
					<path fill="#807F7F" d="M102.29,871.432l0.392,59.277l-32.635-0.925c-5.654,0-12.709,2.682-16.561,8.621
						c-3.852-5.938-10.908-8.618-16.588-8.618l0,0L4.283,930.71v-59.197l33-0.081c6.355,0,12.51,3.719,15.313,9.25
						c0.17,0.336,0.515,0.549,0.892,0.549c0.377,0,0.722-0.213,0.892-0.549c3.074-6.072,10.329-9.25,15.905-9.25H102.29
						 M103.283,870.432h-33c-6.346,0-13.672,3.625-16.797,9.801c-3.125-6.175-9.855-9.801-16.203-9.801l-34,0.083v61.226
						l33.645-0.953c6.346,0,13.435,3.451,16.56,9.625c3.125-6.174,10.214-9.625,16.562-9.625l33.645,0.953L103.283,870.432
						L103.283,870.432z"/>
					<g>
						<path fill="#807F7F" d="M53.486,938.932c-0.276,0-0.5-0.225-0.5-0.5v-57.199c0-0.276,0.224-0.5,0.5-0.5
							c0.275,0,0.5,0.224,0.5,0.5v57.199C53.986,938.708,53.764,938.932,53.486,938.932z"/>
					</g>
				</g>
				<path fill="#676767" d="M53.85,946.762l-2.055-0.438l-0.133-0.639c-2.557-12.3-38.09-10.354-51.566-8.57l-1.129,0.149
					l-0.154-66.829l2-0.006l0.149,64.563c7.339-0.873,46.16-4.811,52.093,8.526c2.739-4.032,13.317-12.959,52.414-8.631
					l0.065-64.458l2,0.002l-0.067,66.698l-1.115-0.129c-48.041-5.557-52.228,8.684-52.265,8.827L53.85,946.762z"/>
			</g>
			<g>
				<path fill="#807F7F" d="M75.91,966.438c11.193,0,20.3,9.104,20.3,20.3v43.5c0,11.192-9.106,20.301-20.3,20.301h-43.5
					c-11.193,0-20.3-9.106-20.3-20.301v-43.5c0-11.194,9.104-20.299,20.3-20.299L75.91,966.438 M75.91,964.987h-43.5
					c-11.962,0-21.75,9.787-21.75,21.75v43.5c0,11.963,9.788,21.75,21.75,21.75h43.5c11.962,0,21.75-9.787,21.75-21.75v-43.5
					C97.66,974.774,87.872,964.987,75.91,964.987L75.91,964.987z"/>
				<rect x="25.16" y="992.537" fill="#807F7F" width="58" height="1.45"/>
				<rect x="25.16" y="1002.688" fill="#807F7F" width="58" height="1.449"/>
				<rect x="25.16" y="1012.837" fill="#807F7F" width="58" height="1.449"/>
				<rect x="25.16" y="1022.987" fill="#807F7F" width="43.5" height="1.448"/>
			</g>
			<g>
				<path fill="#807F7F" d="M37.848,1099.101c8.472,0,15.625,7.252,15.625,15.839v32h-31v-32
					C22.473,1106.354,29.514,1099.101,37.848,1099.101 M37.848,1098.101c-9.043,0-16.375,7.796-16.375,16.839v33h33v-33
					C54.473,1105.896,46.893,1098.101,37.848,1098.101L37.848,1098.101z"/>
				<path fill="#807F7F" d="M37.973,1071.021c6.894,0,12.5,5.606,12.5,12.498c0,6.896-5.606,12.5-12.5,12.5s-12.5-5.604-12.5-12.5
					C25.473,1076.632,31.08,1071.021,37.973,1071.021 M37.973,1070.021c-7.455,0-13.5,6.045-13.5,13.498
					c0,7.457,6.045,13.5,13.5,13.5c7.457,0,13.5-6.043,13.5-13.5C51.473,1076.066,45.43,1070.021,37.973,1070.021L37.973,1070.021z"
					/>
				<g>
					<path fill="#807F7F" d="M78.303,1070.066c3.832,0,6.949,2.644,6.949,5.891v12.618c0,3.246-3.117,5.891-6.949,5.891H63.409
						c-3.833,0-6.95-2.645-6.95-5.891v-12.62c0-3.247,3.117-5.889,6.95-5.889H78.303 M78.303,1069.645H63.409
						c-4.097,0-7.446,2.841-7.446,6.313v12.618c0,3.473,3.352,6.312,7.446,6.312h14.894c4.098,0,7.446-2.84,7.446-6.312v-12.62
						C85.749,1072.484,82.396,1069.645,78.303,1069.645L78.303,1069.645z"/>
					<polygon fill="#807F7F" points="63.995,1094.448 72.043,1094.476 71.785,1095.058 59.598,1101.755 					"/>
				</g>
			</g>
			<g>
				<path fill="#979797" d="M64.369,1256.104c-5.223,0-9.782-0.725-13.546-1.69c-11.464-2.955-18.052-8.615-18.326-8.855
					l-0.212-0.184l-0.491-3.592c-3.476-0.24-19.876-1.922-27.854-12.564c-4.279-5.707-5.348-13.012-3.172-21.709
					c0.06-0.203,5.235-16.873,23.457-21.078l-1.178-8.612c-0.33-1.006-0.471-2.06-0.418-3.148l0.01-0.217l0.125-0.18
					c0.387-0.554,9.811-13.513,40.191-13.513c1.499-0.073,37.684-1.729,44.223,13.648l0.078,0.184l-0.021,0.197
					c0,0.002-0.004,0.006-0.004,0.008l-8.521,71.221l-0.322,0.189C85.396,1253.743,73.801,1256.104,64.369,1256.104z
					 M33.694,1244.599c2.556,2.05,27.882,21.035,63.61,0.496l7.869-65.744c-3.604,5.002-13.453,12.31-40.242,12.31
					c-1.254-0.021-30.563-0.521-39.629-10.164c-0.097-0.104-0.189-0.205-0.281-0.312l6.593,48.203
					c7.399-0.211,14.993-3.854,22.616-10.862c-0.245-1.568-0.834-7.068,2.187-10.945c1.86-2.391,4.714-3.687,8.481-3.854
					c0.162,0.002,11.055,0.41,11.055,11.314c-0.002,0.102-0.289,8.561-8.1,10.469c-1.49,1.447-13.146,12.176-34.562,16.166
					L33.694,1244.599z M24.43,1187.923c-17.242,4.056-22.168,19.82-22.217,19.982c-2.049,8.198-1.068,15.076,2.924,20.405
					c7.281,9.724,22.588,11.613,26.449,11.941l-1.281-9.365c-0.5-0.012-1-0.039-1.498-0.082
					c-11.887-1.004-18.92-10.041-19.213-10.424c-2.617-3.873-3.353-7.785-2.209-11.664c2.695-9.145,14.902-15.188,17.639-16.444
					L24.43,1187.923z M31.818,1230.882l1.271,9.306c22.321-4.179,33.733-15.765,33.848-15.882l0.156-0.161l0.219-0.05
					c6.861-1.545,7.132-8.768,7.14-9.073c0-9.412-9.151-9.783-9.542-9.797c-3.255,0.147-5.732,1.248-7.311,3.272
					c-3.063,3.93-1.84,10.086-1.826,10.146l0.084,0.412l-0.309,0.287C47.604,1226.741,39.635,1230.612,31.818,1230.882z
					 M25.237,1193.835c-3.214,1.545-14.048,7.271-16.414,15.312c-1.011,3.432-0.341,6.916,1.987,10.36
					c0.041,0.053,6.922,8.869,18.141,9.81c0.382,0.03,0.766,0.057,1.148,0.067L25.237,1193.835z M24.516,1177.495
					c0.369,1.043,0.992,2.024,1.879,2.971c8.633,9.185,38.248,9.689,38.547,9.691c36.104,0,40.371-13.636,40.765-15.367
					c-6.387-14.209-42.347-12.549-42.713-12.531c-27.478,0-37.446,10.949-38.83,12.652L24.516,1177.495z M65.432,1188.464h-0.008
					c-1.172,0-28.725-0.371-36.02-8.188c-1.307-1.398-1.918-2.953-1.82-4.656l0.014-0.238l0.16-0.186
					c0.346-0.414,8.781-10.123,35.905-10.123c1.345-0.06,33.66-1.293,39.531,10.268l0.104,0.209l-0.033,0.197
					C103.198,1176.27,101.086,1188.464,65.432,1188.464z M29.076,1175.987c-0.001,1.188,0.467,2.272,1.427,3.305
					c6.835,7.322,34.453,7.742,34.933,7.748c31.762-0.002,35.853-9.697,36.302-11.252c-5.791-10.457-37.712-9.229-38.038-9.211
					c-13.803,0-22.523,2.609-27.417,4.803C31.83,1173.374,29.662,1175.386,29.076,1175.987z"/>
			</g>
		</g>
		<g>
			<g>
				<g filter="url(#AI_GaussianBlur_7)">
					<path d="M14.683,743.529c-9.169-53.816,24.245-112.026,89.38-112.026c60.871,0,98.125,52.007,89.38,112.026
						c2.883-8.797,3.49-16.213,3.49-21.518c-0.188-54.24-38.992-97.049-92.871-97.049c-50.998,0-92.948,39.988-92.948,94.386
						C11.115,720.218,14.846,744.493,14.683,743.529z"/>
				</g>
				<g>
					<path fill="#FFFFFF" d="M104.063,820.43c-56.518,0-102.5-45.98-102.5-102.5c0-56.519,45.982-102.5,102.5-102.5
						s102.5,45.981,102.5,102.5C206.562,774.449,160.581,820.43,104.063,820.43z M104.063,624.964
						c-51.262,0-92.965,41.704-92.965,92.966c0,51.261,41.704,92.967,92.965,92.967c51.26,0,92.964-41.706,92.964-92.967
						C197.027,666.668,155.322,624.964,104.063,624.964z"/>
				</g>
			</g>
			<g>
				<g>
					<path fill="#FFFFFF" d="M149.119,683.429l0.396,59.861l-32.957-0.933c-5.709,0-12.833,2.708-16.725,8.706
						c-3.889-5.998-11.016-8.704-16.75-8.704h-0.002l-32.936,0.933v-59.781l33.325-0.082c6.419,0,12.633,3.755,15.462,9.343
						c0.171,0.339,0.521,0.554,0.901,0.554s0.729-0.215,0.901-0.554c3.104-6.134,10.43-9.343,16.061-9.343H149.119 M150.123,682.419
						h-33.325c-6.408,0-13.806,3.661-16.963,9.896c-3.156-6.233-9.954-9.896-16.363-9.896l-34.335,0.084v61.827l33.975-0.963
						c6.408,0,13.568,3.484,16.724,9.72c3.156-6.234,10.315-9.72,16.727-9.72l33.976,0.963L150.123,682.419L150.123,682.419z"/>
					<g>
						<path fill="#FFFFFF" d="M99.835,751.594c-0.279,0-0.505-0.227-0.505-0.505v-57.765c0-0.278,0.226-0.505,0.505-0.505
							c0.279,0,0.506,0.227,0.506,0.505v57.765C100.341,751.369,100.114,751.594,99.835,751.594z"/>
					</g>
				</g>
				<path fill="#FFFFFF" stroke="#FFFFFF" stroke-miterlimit="10" d="M100.203,759.501l-2.076-0.441l-0.134-0.646
					c-2.583-12.42-38.465-10.455-52.074-8.654l-1.14,0.152l-0.158-67.49l2.02-0.005l0.152,65.199
					c7.412-0.88,46.615-4.856,52.607,8.61c2.765-4.072,13.448-13.087,52.93-8.714l0.064-65.095l2.021,0.002l-0.067,67.356
					l-1.125-0.13c-48.515-5.611-52.744,8.767-52.781,8.912L100.203,759.501z"/>
			</g>
		</g>
		<g>
			<g>
				<path fill="#FFFFFF" d="M99.302,95.163c8.556,0,15.779,7.323,15.779,15.994v32.315H83.775v-32.315
					C83.775,102.486,90.886,95.163,99.302,95.163 M99.302,94.153c-9.132,0-16.536,7.872-16.536,17.003v33.325h33.324v-33.325
					C116.09,102.024,108.435,94.153,99.302,94.153L99.302,94.153z"/>
				<path fill="#FFFFFF" d="M99.428,66.806c6.962,0,12.624,5.663,12.624,12.623c0,6.965-5.662,12.624-12.624,12.624
					c-6.961,0-12.623-5.659-12.623-12.624C86.805,72.472,92.467,66.806,99.428,66.806 M99.428,65.796
					c-7.529,0-13.633,6.104-13.633,13.633c0,7.531,6.104,13.633,13.633,13.633c7.53,0,13.634-6.103,13.634-13.633
					C113.062,71.9,106.959,65.796,99.428,65.796L99.428,65.796z"/>
				<g>
					<path fill="#FFFFFF" d="M140.154,65.841c3.869,0,7.018,2.67,7.018,5.949v12.743c0,3.278-3.146,5.949-7.018,5.949h-15.039
						c-3.872,0-7.02-2.67-7.02-5.949V71.788c0-3.278,3.146-5.947,7.02-5.947H140.154 M140.154,65.415h-15.039
						c-4.139,0-7.521,2.868-7.521,6.375v12.743c0,3.507,3.385,6.375,7.521,6.375h15.039c4.139,0,7.521-2.868,7.521-6.375V71.788
						C147.675,68.283,144.289,65.415,140.154,65.415L140.154,65.415z"/>
					<polygon fill="#FFFFFF" points="125.707,90.464 133.833,90.492 133.573,91.08 121.266,97.843 					"/>
				</g>
			</g>
			<g>
				<g filter="url(#AI_GaussianBlur_7)">
					<path d="M14.683,128.529c-9.17-53.816,24.244-112.027,89.38-112.027c60.871,0,98.125,52.007,89.38,112.027
						c2.884-8.797,3.492-16.213,3.492-21.517c-0.188-54.24-38.992-97.048-92.873-97.048c-50.998,0-92.948,39.987-92.948,94.385
						C11.114,105.218,14.847,129.494,14.683,128.529z"/>
				</g>
				<g>
					<path fill="#FFFFFF" d="M104.063,205.43c-56.519,0-102.5-45.982-102.5-102.5s45.981-102.5,102.5-102.5
						c56.518,0,102.5,45.982,102.5,102.5S160.58,205.43,104.063,205.43z M104.063,9.964c-51.262,0-92.966,41.704-92.966,92.965
						c0,51.26,41.704,92.966,92.966,92.966c51.261,0,92.964-41.706,92.964-92.966C197.027,51.668,155.323,9.964,104.063,9.964z"/>
				</g>
			</g>
		</g>
		<g>
			<g>
				<path fill="#FFFFFF" d="M125.746,266.706c11.304,0,20.501,9.194,20.501,20.5v43.929c0,11.305-9.197,20.501-20.501,20.501H81.817
					c-11.304,0-20.499-9.196-20.499-20.501v-43.929c0-11.306,9.194-20.5,20.499-20.5H125.746 M125.746,265.241H81.817
					c-12.079,0-21.964,9.884-21.964,21.964v43.929c0,12.081,9.885,21.964,21.964,21.964h43.928c12.081,0,21.964-9.883,21.964-21.964
					v-43.929C147.71,275.125,137.827,265.241,125.746,265.241L125.746,265.241z"/>
				<rect x="74.496" y="293.062" fill="#FFFFFF" width="58.572" height="1.464"/>
				<rect x="74.496" y="303.313" fill="#FFFFFF" width="58.572" height="1.464"/>
				<rect x="74.496" y="313.562" fill="#FFFFFF" width="58.572" height="1.465"/>
				<rect x="74.496" y="323.812" fill="#FFFFFF" width="43.929" height="1.465"/>
			</g>
			<g>
				<g filter="url(#AI_GaussianBlur_7)">
					<path d="M14.683,333.529c-9.169-53.816,24.245-112.027,89.38-112.027c60.871,0,98.125,52.007,89.38,112.027
						c2.884-8.797,3.492-16.213,3.492-21.518c-0.188-54.24-38.992-97.048-92.873-97.048c-50.998,0-92.948,39.988-92.948,94.385
						C11.115,310.218,14.847,334.493,14.683,333.529z"/>
				</g>
				<g>
					<path fill="#FFFFFF" d="M104.063,410.43c-56.518,0-102.5-45.98-102.5-102.5c0-56.518,45.982-102.5,102.5-102.5
						s102.5,45.982,102.5,102.5C206.562,364.448,160.581,410.43,104.063,410.43z M104.063,214.964
						c-51.262,0-92.965,41.704-92.965,92.965s41.704,92.966,92.965,92.966s92.964-41.705,92.964-92.966
						S155.323,214.964,104.063,214.964z"/>
				</g>
			</g>
		</g>
		<g>
			<g>
				<path fill="#FFFFFF" d="M102.589,562.124c-5.274,0-9.879-0.731-13.68-1.708c-11.577-2.983-18.229-8.7-18.507-8.942l-0.214-0.186
					l-0.496-3.627c-3.51-0.242-20.072-1.94-28.129-12.688c-4.321-5.763-5.4-13.14-3.203-21.923
					c0.06-0.205,5.287-17.039,23.688-21.285l-1.189-8.697c-0.333-1.018-0.476-2.079-0.422-3.181l0.01-0.219l0.126-0.182
					c0.391-0.56,9.907-13.646,40.587-13.646c1.514-0.075,38.055-1.748,44.658,13.782l0.078,0.186l-0.021,0.199
					c0,0.002-0.004,0.006-0.004,0.008l-8.605,71.924l-0.324,0.19C123.824,559.74,112.114,562.124,102.589,562.124z M71.612,550.505
					c2.581,2.069,28.156,21.243,64.238,0.501l7.946-66.392c-3.64,5.052-13.586,12.43-40.639,12.43
					c-1.266-0.02-30.864-0.524-40.02-10.264c-0.098-0.104-0.191-0.207-0.284-0.313l6.658,48.678
					c7.472-0.213,15.141-3.892,22.839-10.971c-0.248-1.583-0.842-7.138,2.208-11.053c1.879-2.414,4.76-3.722,8.565-3.893
					c0.164,0.003,11.164,0.414,11.164,11.427c-0.002,0.103-0.292,8.646-8.179,10.571c-1.505,1.461-13.275,12.297-34.902,16.325
					L71.612,550.505z M62.256,493.271c-17.412,4.095-22.387,20.016-22.436,20.179c-2.069,8.28-1.079,15.225,2.953,20.606
					c7.353,9.818,22.811,11.729,26.71,12.061l-1.294-9.458c-0.505-0.013-1.01-0.039-1.513-0.083
					c-12.004-1.014-19.106-10.141-19.402-10.526c-2.643-3.911-3.385-7.86-2.23-11.778c2.722-9.234,15.049-15.34,17.813-16.607
					L62.256,493.271z M69.718,536.653l1.284,9.396c22.542-4.219,34.066-15.919,34.181-16.037l0.158-0.164l0.221-0.049
					c6.929-1.561,7.202-8.854,7.21-9.164c0-9.505-9.242-9.88-9.636-9.894c-3.287,0.149-5.789,1.261-7.382,3.306
					c-3.093,3.969-1.858,10.187-1.844,10.247l0.085,0.416L93.683,525C85.658,532.472,77.611,536.381,69.718,536.653z
					 M63.072,499.241c-3.246,1.561-14.186,7.344-16.576,15.462c-1.021,3.465-0.344,6.982,2.007,10.463
					c0.042,0.054,6.99,8.957,18.319,9.905c0.386,0.032,0.773,0.058,1.16,0.068L63.072,499.241z M62.343,482.74
					c0.373,1.054,1.002,2.046,1.897,3c8.718,9.273,38.625,9.785,38.927,9.787c36.459,0,40.769-13.77,41.167-15.52
					c-6.45-14.349-42.764-12.672-43.134-12.654c-27.749,0-37.815,11.058-39.213,12.776L62.343,482.74z M103.662,493.817h-0.008
					c-1.184,0-29.008-0.375-36.375-8.269c-1.319-1.413-1.937-2.981-1.838-4.703l0.014-0.239l0.162-0.188
					c0.349-0.418,8.868-10.223,36.259-10.223c1.358-0.06,33.992-1.307,39.921,10.369l0.105,0.211l-0.034,0.198
					C141.801,481.502,139.667,493.817,103.662,493.817z M66.948,481.218c-0.001,1.201,0.472,2.296,1.441,3.338
					c6.902,7.395,34.792,7.818,35.277,7.824c32.075-0.002,36.206-9.793,36.66-11.363c-5.848-10.56-38.083-9.318-38.413-9.302
					c-13.938,0-22.745,2.636-27.687,4.852C69.729,478.579,67.54,480.61,66.948,481.218z"/>
			</g>
			<g>
				<g filter="url(#AI_GaussianBlur_7)">
					<path d="M14.683,538.529c-9.169-53.816,24.245-112.026,89.38-112.026c60.871,0,98.125,52.007,89.38,112.026
						c2.884-8.797,3.492-16.213,3.492-21.518c-0.188-54.24-38.992-97.049-92.873-97.049c-50.998,0-92.948,39.988-92.948,94.386
						C11.115,515.218,14.847,539.493,14.683,538.529z"/>
				</g>
				<g>
					<path fill="#FFFFFF" d="M104.063,615.43c-56.518,0-102.5-45.98-102.5-102.5c0-56.519,45.982-102.5,102.5-102.5
						s102.5,45.981,102.5,102.5C206.562,569.449,160.581,615.43,104.063,615.43z M104.063,419.964
						c-51.262,0-92.965,41.704-92.965,92.966c0,51.261,41.704,92.967,92.965,92.967s92.964-41.706,92.964-92.967
						C197.027,461.668,155.323,419.964,104.063,419.964z"/>
				</g>
			</g>
		</g>
	</g>
	<g>
		<g>
			<g>
				<path fill="#FFFFFF" stroke="#FFFFFF" stroke-width="3" stroke-miterlimit="10" d="M163.616,1490.131l0.392,59.277
					l-32.635-0.925c-5.654,0-12.709,2.682-16.561,8.621c-3.853-5.938-10.908-8.618-16.588-8.618l0,0l-32.615,0.923v-59.197l33-0.081
					c6.355,0,12.51,3.719,15.313,9.25c0.17,0.336,0.515,0.549,0.892,0.549s0.722-0.213,0.892-0.549
					c3.074-6.072,10.329-9.25,15.905-9.25H163.616 M164.609,1489.131h-33c-6.346,0-13.672,3.625-16.797,9.801
					c-3.125-6.175-9.855-9.801-16.203-9.801l-34,0.083v61.226l33.646-0.953c6.346,0,13.435,3.451,16.56,9.625
					c3.125-6.174,10.214-9.625,16.562-9.625l33.646,0.953L164.609,1489.131L164.609,1489.131z"/>
				<g>
					<path fill="#FFFFFF" stroke="#FFFFFF" stroke-width="3" stroke-miterlimit="10" d="M114.812,1557.631
						c-0.276,0-0.5-0.225-0.5-0.5v-57.199c0-0.276,0.224-0.5,0.5-0.5c0.274,0,0.5,0.224,0.5,0.5v57.199
						C115.312,1557.407,115.09,1557.631,114.812,1557.631z"/>
				</g>
			</g>
			<path fill="#FFFFFF" stroke="#FFFFFF" stroke-width="3" stroke-miterlimit="10" d="M115.176,1565.461l-2.055-0.438l-0.133-0.639
				c-2.557-12.3-38.09-10.354-51.565-8.57l-1.13,0.149l-0.153-66.829l2-0.006l0.148,64.563c7.339-0.873,46.16-4.811,52.094,8.526
				c2.738-4.032,13.316-12.959,52.413-8.631l0.065-64.458l2,0.002l-0.067,66.698l-1.115-0.129
				c-48.041-5.557-52.228,8.684-52.265,8.827L115.176,1565.461z"/>
		</g>
		<g>
			<path fill="#FFFFFF" stroke="#FFFFFF" stroke-width="3" stroke-miterlimit="10" d="M137.236,1645.137
				c11.193,0,20.3,9.104,20.3,20.3v43.5c0,11.192-9.106,20.301-20.3,20.301h-43.5c-11.193,0-20.3-9.106-20.3-20.301v-43.5
				c0-11.194,9.104-20.299,20.3-20.299L137.236,1645.137 M137.236,1643.687h-43.5c-11.962,0-21.75,9.787-21.75,21.75v43.5
				c0,11.963,9.788,21.75,21.75,21.75h43.5c11.962,0,21.75-9.787,21.75-21.75v-43.5
				C158.986,1653.474,149.198,1643.687,137.236,1643.687L137.236,1643.687z"/>
			
				<rect x="86.486" y="1671.236" fill="#FFFFFF" stroke="#FFFFFF" stroke-width="3" stroke-miterlimit="10" width="58" height="1.45"/>
			
				<rect x="86.486" y="1681.387" fill="#FFFFFF" stroke="#FFFFFF" stroke-width="3" stroke-miterlimit="10" width="58" height="1.449"/>
			
				<rect x="86.486" y="1691.536" fill="#FFFFFF" stroke="#FFFFFF" stroke-width="3" stroke-miterlimit="10" width="58" height="1.449"/>
			
				<rect x="86.486" y="1701.687" fill="#FFFFFF" stroke="#FFFFFF" stroke-width="3" stroke-miterlimit="10" width="43.5" height="1.448"/>
		</g>
		<g>
			<path fill="#FFFFFF" stroke="#FFFFFF" stroke-width="3" stroke-miterlimit="10" d="M99.175,1837.8
				c8.472,0,15.625,7.252,15.625,15.839v32h-31v-32C83.8,1845.053,90.841,1837.8,99.175,1837.8 M99.175,1836.8
				c-9.043,0-16.375,7.796-16.375,16.839v33h32.999v-33C115.799,1844.596,108.22,1836.8,99.175,1836.8L99.175,1836.8z"/>
			<path fill="#FFFFFF" stroke="#FFFFFF" stroke-width="3" stroke-miterlimit="10" d="M99.3,1809.721
				c6.894,0,12.5,5.606,12.5,12.498c0,6.896-5.606,12.5-12.5,12.5c-6.895,0-12.5-5.604-12.5-12.5
				C86.8,1815.331,92.406,1809.721,99.3,1809.721 M99.3,1808.721c-7.455,0-13.5,6.045-13.5,13.498c0,7.457,6.045,13.5,13.5,13.5
				c7.457,0,13.5-6.043,13.5-13.5C112.8,1814.766,106.757,1808.721,99.3,1808.721L99.3,1808.721z"/>
			<g>
				<path fill="#FFFFFF" stroke="#FFFFFF" stroke-width="3" stroke-miterlimit="10" d="M139.629,1808.766
					c3.832,0,6.949,2.644,6.949,5.891v12.618c0,3.246-3.117,5.891-6.949,5.891h-14.894c-3.833,0-6.95-2.645-6.95-5.891v-12.62
					c0-3.247,3.117-5.889,6.95-5.889H139.629 M139.629,1808.344h-14.894c-4.097,0-7.446,2.841-7.446,6.313v12.618
					c0,3.473,3.352,6.312,7.446,6.312h14.894c4.098,0,7.446-2.84,7.446-6.312v-12.62
					C147.075,1811.184,143.723,1808.344,139.629,1808.344L139.629,1808.344z"/>
				<polygon fill="#FFFFFF" stroke="#FFFFFF" stroke-width="3" stroke-miterlimit="10" points="125.321,1833.147 133.369,1833.175 
					133.111,1833.757 120.924,1840.454 				"/>
			</g>
		</g>
		<g>
			<path fill="#FFFFFF" stroke="#FFFFFF" stroke-width="3" stroke-miterlimit="10" d="M125.695,2034.803
				c-5.223,0-9.782-0.725-13.546-1.69c-11.464-2.955-18.052-8.615-18.326-8.855l-0.212-0.184l-0.491-3.592
				c-3.476-0.24-19.876-1.922-27.854-12.564c-4.279-5.707-5.349-13.012-3.172-21.709c0.06-0.203,5.234-16.873,23.457-21.078
				l-1.179-8.612c-0.33-1.006-0.471-2.06-0.418-3.148l0.011-0.217l0.125-0.18c0.387-0.554,9.811-13.513,40.19-13.513
				c1.499-0.073,37.684-1.729,44.223,13.648l0.078,0.184l-0.021,0.197c0,0.002-0.004,0.006-0.004,0.008l-8.521,71.221l-0.321,0.189
				C146.723,2032.442,135.127,2034.803,125.695,2034.803z M95.021,2023.298c2.556,2.05,27.882,21.035,63.61,0.496l7.868-65.744
				c-3.604,5.002-13.452,12.31-40.241,12.31c-1.255-0.021-30.563-0.521-39.63-10.164c-0.097-0.104-0.188-0.205-0.28-0.312
				l6.593,48.203c7.399-0.211,14.993-3.854,22.616-10.862c-0.246-1.568-0.834-7.068,2.187-10.945
				c1.86-2.391,4.714-3.687,8.481-3.854c0.162,0.002,11.055,0.41,11.055,11.314c-0.002,0.102-0.289,8.561-8.1,10.469
				c-1.49,1.447-13.146,12.176-34.562,16.166L95.021,2023.298z M85.757,1966.622c-17.242,4.056-22.168,19.82-22.218,19.982
				c-2.049,8.198-1.067,15.076,2.925,20.405c7.28,9.724,22.588,11.613,26.448,11.941l-1.28-9.365c-0.5-0.012-1-0.039-1.498-0.082
				c-11.888-1.004-18.92-10.041-19.214-10.424c-2.616-3.873-3.353-7.785-2.209-11.664c2.695-9.145,14.902-15.188,17.64-16.444
				L85.757,1966.622z M93.145,2009.581l1.271,9.306c22.321-4.179,33.733-15.765,33.849-15.882l0.155-0.161l0.22-0.05
				c6.86-1.545,7.131-8.768,7.14-9.073c0-9.412-9.151-9.783-9.542-9.797c-3.256,0.147-5.732,1.248-7.311,3.272
				c-3.063,3.93-1.841,10.086-1.826,10.146l0.084,0.412l-0.31,0.287C108.931,2005.44,100.961,2009.312,93.145,2009.581z
				 M86.563,1972.534c-3.214,1.545-14.048,7.271-16.414,15.312c-1.011,3.432-0.341,6.916,1.987,10.36
				c0.041,0.053,6.922,8.869,18.141,9.81c0.382,0.03,0.766,0.057,1.148,0.067L86.563,1972.534z M85.843,1956.194
				c0.368,1.043,0.991,2.024,1.879,2.971c8.633,9.185,38.247,9.689,38.546,9.691c36.104,0,40.371-13.636,40.766-15.367
				c-6.387-14.209-42.348-12.549-42.713-12.531c-27.478,0-37.446,10.949-38.83,12.652L85.843,1956.194z M126.758,1967.163h-0.008
				c-1.172,0-28.725-0.371-36.02-8.188c-1.307-1.398-1.918-2.953-1.82-4.656l0.015-0.238l0.159-0.186
				c0.347-0.414,8.781-10.123,35.905-10.123c1.345-0.06,33.66-1.293,39.53,10.268l0.104,0.209l-0.032,0.197
				C164.524,1954.969,162.412,1967.163,126.758,1967.163z M90.402,1954.687c-0.001,1.188,0.467,2.272,1.427,3.305
				c6.835,7.322,34.453,7.742,34.933,7.748c31.763-0.002,35.854-9.697,36.303-11.252c-5.791-10.457-37.713-9.229-38.038-9.211
				c-13.803,0-22.523,2.609-27.417,4.803C93.156,1952.073,90.988,1954.085,90.402,1954.687z"/>
		</g>
	</g>
</g>
</svg>
